<?xml version="1.0" encoding="utf-8"?>
<!-- Generator: Adobe Illustrator 28.1.0, SVG Export Plug-In . SVG Version: 6.00 Build 0)  -->
<svg version="1.1" id="Capa_1" xmlns="http://www.w3.org/2000/svg" xmlns:xlink="http://www.w3.org/1999/xlink" x="0px" y="0px"
	 viewBox="0 0 844 790" style="enable-background:new 0 0 844 790;" xml:space="preserve">
<style type="text/css">
	.st0{fill:#E3B314;}
	.st1{fill:#3D0F0F;}
</style>
<circle class="st0" cx="403" cy="395" r="395"/>
<g>
	<g>
		<path class="st1" d="M632,319.3c-2-14.9-2.3-40.5,11.6-49.2c0.2-0.2,0.4-0.4,0.6-0.6c11.3-3.6,19.1-8.7,13-15.5l-166.8-50.3
			l-270.1,37.6c0,0-30.9,4.4-28.2,52.5c1.5,26.2,9.7,39,16.9,45.3l-22.2,6.7c-6.2,6.8,1.7,11.9,13,15.5c0.2,0.2,0.4,0.4,0.6,0.6
			c13.8,8.6,13.6,34.3,11.6,49.2c-49.7,14.1-31.8,18.7-31.8,18.7l10.9,2.6c-7.7,6.9-15.3,20.1-13.8,45c2.8,48,28.2,51.4,28.2,51.4
			l176.8,57.5L649,521.6c0,0,17.8-4.6-31.8-18.7c-2-14.9-2.3-40.5,11.6-49.2c0.3-0.2,0.4-0.4,0.6-0.6c11.3-3.6,19.1-8.7,13-15.5
			l-11.6-3.5c7.7-4.7,19.4-16.9,21.2-48.5c1.3-21.8-4.4-34.5-11-42l22.9-5.5C663.8,338,681.7,333.4,632,319.3z M408.8,318.7
			l44.9-9.2l151.6-31.2l22.6-4.6c-7.2,13.2-6.9,31.3-5.7,42.9c0.3,2.6,0.6,5,0.9,6.9l-24.7,6.1l-191.4,47.6L408.8,318.7z
			 M216.1,365.5l22.6,4.6L384.3,400l12.7,2.6l0,0l0,0l38.1,7.8l1.9,58.5l-196.7-48.9l-19.4-4.8c0.3-1.8,0.6-4.2,0.9-6.9
			C223,396.8,223.3,378.7,216.1,365.5z M207.3,291.5c-0.3-12.8,2-22,6.6-26.7c2.9-3,6.4-3.6,8.8-3.6c1.3,0,2.2,0.2,2.2,0.2
			l116.4,37.9l58.1,18.9l-1.9,58.9l-162.9-45.7L226,329c-0.3-0.1-0.7-0.2-1.1-0.2C224.2,328.8,208.1,327.3,207.3,291.5z
			 M382.6,560.7l-171.5-48.1c-0.3-0.1-0.7-0.2-1.1-0.2c-0.7,0-16.8-1.5-17.6-37.3c-0.3-12.8,2-22,6.6-26.7c2.9-3,6.4-3.6,8.8-3.6
			c1.3,0,2.2,0.2,2.2,0.2c0,0,0,0,0,0l174.4,56.9L382.6,560.7z M607.3,500.2c0.3,2.6,0.6,5,0.9,6.9l-216.1,53.8l1.9-58.5l46.2-9.5
			l6.8,1.7l25.6-8.3l117.9-24.2l22.6-4.6C605.8,470.5,606.1,488.5,607.3,500.2z M619.2,420.7c-0.4,0-0.8,0.1-1.2,0.2l-16.3,4.6
			l-155.2,43.5l-1.9-58.9l50.9-16.6l123.3-40.2c0,0,6.5-1.4,11.2,3.4c4.6,4.7,6.9,13.9,6.6,26.7
			C635.9,419.1,619.8,420.6,619.2,420.7z"/>
	</g>
</g>
</svg>
